<?xml version="1.0" standalone="no"?><!DOCTYPE svg PUBLIC "-//W3C//DTD SVG 1.1//EN" "http://www.w3.org/Graphics/SVG/1.1/DTD/svg11.dtd"><svg t="1573969612711" class="icon" viewBox="0 0 1024 1024" version="1.1" xmlns="http://www.w3.org/2000/svg" p-id="9810" xmlns:xlink="http://www.w3.org/1999/xlink" width="200" height="200"><defs><style type="text/css"></style></defs><path d="M512 92.246c-231.87 0-419.802 187.932-419.802 419.802s187.932 419.802 419.802 419.802c231.87 0 419.802-187.932 419.802-419.802s-187.932-419.802-419.802-419.802zM775.528 393.283l-296.433 296.433c-8.634 8.634-24.271 12.567-37.222 11.992-13.047 0.576-28.876-3.357-37.509-11.992l-130.085-130.181c-16.212-16.212-16.212-42.594 0-58.903 16.212-16.212 42.594-16.212 58.903 0l108.596 108.692 274.943-274.943c16.212-16.212 42.594-16.212 58.903 0 16.212 16.309 16.212 42.69-0.096 58.903z" p-id="9811"></path></svg>