<?xml version="1.0" standalone="no"?><!DOCTYPE svg PUBLIC "-//W3C//DTD SVG 1.1//EN" "http://www.w3.org/Graphics/SVG/1.1/DTD/svg11.dtd"><svg t="1573970551247" class="icon" viewBox="0 0 1024 1024" version="1.1" xmlns="http://www.w3.org/2000/svg" p-id="15173" xmlns:xlink="http://www.w3.org/1999/xlink" width="200" height="200"><defs><style type="text/css"></style></defs><path d="M957.44 376.832c-3.072-26.624-25.6-46.08-53.248-44.032-62.464 3.072-125.952 4.096-190.464 3.072 0-1.024-1.024-1.024-2.048-2.048l-112.64-112.64c-27.648-28.672-57.344-54.272-90.112-77.824-20.48-14.336-41.984-21.504-64.512-22.528-106.496-6.144-169.984-8.192-212.992-8.192-37.888 0-74.752 2.048-117.76 7.168-24.576 3.072-41.984 21.504-44.032 45.056C57.344 279.552 51.2 396.288 51.2 512c0 110.592 6.144 220.16 17.408 326.656 3.072 24.576 22.528 43.008 47.104 44.032C246.784 894.976 380.928 901.12 513.024 901.12s266.24-6.144 397.312-18.432c23.552-2.048 43.008-19.456 46.08-43.008 11.264-68.608 16.384-142.336 16.384-225.28 1.024-81.92-4.096-162.816-15.36-237.568z m-40.96 456.704c-1.024 5.12-4.096 8.192-9.216 8.192C776.192 854.016 644.096 860.16 513.024 860.16s-263.168-6.144-394.24-18.432c-6.144 0-9.216-5.12-9.216-8.192C98.304 729.088 92.16 620.544 92.16 512c0-113.664 6.144-229.376 18.432-344.064 0-4.096 4.096-8.192 8.192-9.216 40.96-5.12 76.8-7.168 112.64-7.168 41.984 0 105.472 2.048 210.944 8.192 14.336 1.024 29.696 6.144 43.008 15.36 30.72 21.504 58.368 46.08 83.968 72.704l83.968 83.968-52.224-3.072c-111.616-7.168-224.256-7.168-335.872 0-11.264 1.024-19.456 10.24-19.456 21.504 1.024 11.264 10.24 19.456 21.504 19.456 109.568-7.168 220.16-7.168 329.728 0 105.472 6.144 208.896 7.168 307.2 2.048 5.12 0 9.216 3.072 10.24 9.216 10.24 73.728 16.384 152.576 16.384 232.448 2.048 81.92-3.072 153.6-14.336 220.16z" p-id="15174"></path></svg>