<?xml version="1.0" standalone="no"?><!DOCTYPE svg PUBLIC "-//W3C//DTD SVG 1.1//EN" "http://www.w3.org/Graphics/SVG/1.1/DTD/svg11.dtd"><svg t="1573992335686" class="icon" viewBox="0 0 1024 1024" version="1.1" xmlns="http://www.w3.org/2000/svg" p-id="2012" xmlns:xlink="http://www.w3.org/1999/xlink" width="200" height="200"><defs><style type="text/css"></style></defs><path d="M864 64H160C106.98 64 64 106.98 64 160v704c0 53.02 42.98 96 96 96h704c53.02 0 96-42.98 96-96V160c0-53.02-42.98-96-96-96zM288 832c-53.02 0-96-42.98-96-96s42.98-96 96-96 96 42.98 96 96-42.98 96-96 96z m315.066 0h-68.67c-12.022 0-22.102-9.272-22.884-21.268-10.428-160.1-138.486-287.84-298.246-298.246-11.994-0.78-21.266-10.862-21.266-22.882v-68.67c0-13.07 10.936-23.554 23.988-22.85 221.092 11.948 397.994 189.072 409.928 409.928 0.704 13.052-9.78 23.988-22.85 23.988z m206.054 0h-68.668c-12.322 0-22.35-9.764-22.854-22.076-11.196-273.07-230.408-492.322-503.52-503.52C201.764 305.898 192 295.87 192 283.548V214.88c0-12.908 10.676-23.328 23.574-22.864 335.66 12.05 604.42 282.382 616.41 616.41 0.464 12.898-9.956 23.574-22.864 23.574z" p-id="2013"></path></svg>